<svg xmlns="http://www.w3.org/2000/svg" width="168" height="28.432" viewBox="0 0 168 28.432">
  <g id="CloudPanel_logo" data-name="CloudPanel logo" transform="translate(0.001 0.005)">
    <path id="Path_2" data-name="Path 2" d="M29.161,12.563h0a9.72,9.72,0,0,0-4.127-3.026,9.537,9.537,0,0,0-2.568-6.511A9.079,9.079,0,0,0,15.956,0a9.445,9.445,0,0,0-9.72,8.987v.55A9.812,9.812,0,0,0,0,18.707a9.629,9.629,0,0,0,9.354,9.72,9.445,9.445,0,0,0,6.327-2.476,9.262,9.262,0,0,0,6.236,2.476,9.537,9.537,0,0,0,9.354-9.72,10,10,0,0,0-2.109-6.144Zm-16.6,6.144a9.079,9.079,0,0,0,1.192,4.677,6.144,6.144,0,0,1-4.4,1.834,6.511,6.511,0,0,1,0-13.022,6.144,6.144,0,0,1,2.2.367h.092l.55.183a1.467,1.467,0,0,0,1.009.459,1.284,1.284,0,0,0,1.1-.55h0a1.651,1.651,0,0,0-.183-2.293,4.218,4.218,0,0,0-1.559-.825,9.537,9.537,0,0,0-3.21-.642h0a6.327,6.327,0,0,1,12.563.275v.459a6.6,6.6,0,0,1-2.659,5.41,1.742,1.742,0,0,0-.367,2.2,1.467,1.467,0,0,0,1.284.734h0a1.926,1.926,0,0,0,.917-.367,9.629,9.629,0,0,0,3.393-4.86,6.6,6.6,0,0,1,3.76,5.961,6.511,6.511,0,0,1-6.236,6.511h-.092a6.327,6.327,0,0,1-6.236-6.511,1.651,1.651,0,0,0-.459-1.1,1.559,1.559,0,0,0-1.1-.459h0a1.651,1.651,0,0,0-1.559,1.559Z" transform="translate(0 0)" fill="#1e7ae0"/>
    <path id="Path_3" data-name="Path 3" d="M58.58,20.855l-.917.642-.917.459-1.1.275H54.27a6.878,6.878,0,0,1-2.384-.459,6.052,6.052,0,0,1-1.834-1.284,6.6,6.6,0,0,1-1.284-2.2,9.079,9.079,0,0,1,0-5.686,7.153,7.153,0,0,1,1.192-2.2,5.5,5.5,0,0,1,1.926-1.284,5.044,5.044,0,0,1,2.384-.367l1.926.183,1.192.55.825.55a1.009,1.009,0,0,0,.642.183h.459l.275-.275L60.6,8.476h-.092a8.9,8.9,0,0,0-2.659-1.834A8.62,8.62,0,0,0,54.27,6a9.354,9.354,0,0,0-3.668.734,8.162,8.162,0,0,0-2.934,1.926,8.528,8.528,0,0,0-1.926,3.026,13.022,13.022,0,0,0-.642,3.852,13.022,13.022,0,0,0,.642,3.852,8.8,8.8,0,0,0,1.834,2.934,6.694,6.694,0,0,0,2.751,2.017,9.812,9.812,0,0,0,3.76.734,8.9,8.9,0,0,0,3.943-.825,6.969,6.969,0,0,0,2.751-2.109h.092l-1.284-1.376C59.314,20.489,58.947,20.489,58.58,20.855Z" transform="translate(-3.742 -0.498)" fill="#222"/>
    <rect id="Rectangle_20" data-name="Rectangle 20" width="2.934" height="19.138" transform="translate(59.057 5.227)" fill="#222"/>
    <path id="Path_4" data-name="Path 4" d="M81.5,13.734a6.511,6.511,0,0,0-2.017-1.376,7.978,7.978,0,0,0-5.319,0,6.511,6.511,0,0,0-2.017,1.376,5.41,5.41,0,0,0-1.284,2.109,7.153,7.153,0,0,0-.459,2.843,7.153,7.153,0,0,0,.459,2.843,5.41,5.41,0,0,0,1.284,2.109,4.4,4.4,0,0,0,2.017,1.376,7.978,7.978,0,0,0,5.319,0A4.4,4.4,0,0,0,81.5,23.638a5.41,5.41,0,0,0,1.284-2.109,9.079,9.079,0,0,0,0-5.686A5.41,5.41,0,0,0,81.5,13.734ZM80.3,18.686a5.961,5.961,0,0,1-.917,3.393,3.576,3.576,0,0,1-5.135,0,5.319,5.319,0,0,1-.917-3.393,5.319,5.319,0,0,1,.917-3.393,3.576,3.576,0,0,1,5.135,0A5.961,5.961,0,0,1,80.3,18.686Z" transform="translate(-5.841 -0.988)" fill="#222"/>
    <path id="Path_5" data-name="Path 5" d="M95.437,21.729a5.594,5.594,0,0,1-1.467,1.1,3.576,3.576,0,0,1-1.651.367,2.2,2.2,0,0,1-1.834-.642,3.485,3.485,0,0,1-.55-2.017V12.1H87v8.437a7.153,7.153,0,0,0,.275,2.017,2.934,2.934,0,0,0,.917,1.559,4.035,4.035,0,0,0,1.376,1.1,5.961,5.961,0,0,0,1.926.367l1.284-.183,1.1-.367,1.009-.642.734-.734.183,1.1a.734.734,0,0,0,.734.55h1.742V12.1H95.437Z" transform="translate(-7.219 -1.004)" fill="#222"/>
    <path id="Path_6" data-name="Path 6" d="M111.178,5.7v6.878l-1.376-.917a6.144,6.144,0,0,0-2.017-.367,5.044,5.044,0,0,0-4.127,2.017,6.419,6.419,0,0,0-1.192,2.2,8.712,8.712,0,0,0-.367,2.751,9.262,9.262,0,0,0,.367,2.843,5.044,5.044,0,0,0,1.009,2.109,5.594,5.594,0,0,0,1.559,1.376,4.952,4.952,0,0,0,2.017.367,5.5,5.5,0,0,0,2.476-.55,9.17,9.17,0,0,0,1.834-1.467l.183,1.284a.734.734,0,0,0,.734.55h1.742V5.7Zm0,9.17v6.052a5.869,5.869,0,0,1-1.376,1.284,3.852,3.852,0,0,1-1.834.459,2.568,2.568,0,0,1-1.192-.275,2.293,2.293,0,0,1-.917-.734,3.118,3.118,0,0,1-.55-1.376,6.694,6.694,0,0,1-.275-2.017,5.869,5.869,0,0,1,.917-3.485,2.934,2.934,0,0,1,2.476-1.192,3.76,3.76,0,0,1,1.467.275A3.3,3.3,0,0,1,111.178,14.87Z" transform="translate(-8.471 -0.473)" fill="#222"/>
    <path id="Path_7" data-name="Path 7" d="M130.388,7.851a5.044,5.044,0,0,0-2.2-1.192,10.638,10.638,0,0,0-3.118-.459H119.2V24.816h3.118V18.121h2.751a10.179,10.179,0,0,0,3.026-.367,6.328,6.328,0,0,0,2.2-1.284,4.677,4.677,0,0,0,1.376-1.926,5.41,5.41,0,0,0,.459-2.476,6.878,6.878,0,0,0-.367-2.384,5.411,5.411,0,0,0-1.376-1.834Zm-1.376,4.218a3.484,3.484,0,0,1-.275,1.467,2.293,2.293,0,0,1-.734,1.1,2.66,2.66,0,0,1-1.192.734,5.319,5.319,0,0,1-1.742.275h-2.751V8.676h2.751a5.319,5.319,0,0,1,1.742.275A3.668,3.668,0,0,1,128,9.593a1.834,1.834,0,0,1,.734,1.1A3.393,3.393,0,0,1,129.012,12.069Z" transform="translate(-9.89 -0.515)" fill="#1e7ae0"/>
    <path id="Path_8" data-name="Path 8" d="M143.837,13.267a4.769,4.769,0,0,0-1.559-1.1,6.6,6.6,0,0,0-2.017-.367,7.611,7.611,0,0,0-5.319,2.109h-.092l.55.917a.734.734,0,0,0,.367.367,1.009,1.009,0,0,0,.55.183l.642-.183.734-.459.917-.459,1.284-.183a2.476,2.476,0,0,1,1.742.642,3.393,3.393,0,0,1,.55,2.109v.825a20.633,20.633,0,0,0-3.668.367,10.637,10.637,0,0,0-2.476,1.009,3.76,3.76,0,0,0-1.376,1.284A2.935,2.935,0,0,0,134.3,21.8a4.4,4.4,0,0,0,.275,1.651,3.118,3.118,0,0,0,.825,1.1,2.476,2.476,0,0,0,1.192.642,4.127,4.127,0,0,0,1.467.275l1.376-.183,1.1-.367,1.009-.55.917-.734.275.917a.825.825,0,0,0,.367.55h1.926V16.935a7.8,7.8,0,0,0-.275-2.109,8.712,8.712,0,0,0-.917-1.559Zm-1.651,6.327v2.293a4.4,4.4,0,0,1-1.467,1.192,3.668,3.668,0,0,1-1.834.367h-.734l-.55-.275-.459-.55a1.742,1.742,0,0,1-.092-.734,1.467,1.467,0,0,1,.275-.825,2.018,2.018,0,0,1,.825-.642l1.651-.55Z" transform="translate(-11.143 -0.979)" fill="#1e7ae0"/>
    <path id="Path_9" data-name="Path 9" d="M159.579,13.275a3.3,3.3,0,0,0-1.467-1.009,4.218,4.218,0,0,0-1.926-.367h-1.192a3.026,3.026,0,0,0-1.1.459l-1.009.55-.825.734-.183-1.1a.734.734,0,0,0-.734-.55H149.4v13.3h2.843V15.751a7.611,7.611,0,0,1,1.467-1.1,3.76,3.76,0,0,1,1.651-.459,2.293,2.293,0,0,1,1.834.734,3.118,3.118,0,0,1,.642,2.017v8.345h2.843V16.943a7.8,7.8,0,0,0-.275-2.109,5.135,5.135,0,0,0-.825-1.559Z" transform="translate(-12.396 -0.987)" fill="#1e7ae0"/>
    <path id="Path_10" data-name="Path 10" d="M174.662,13.459a4.86,4.86,0,0,0-1.834-1.192,6.328,6.328,0,0,0-2.293-.367,7.52,7.52,0,0,0-2.568.459,5.5,5.5,0,0,0-2.017,1.467,5.594,5.594,0,0,0-1.192,2.017,6.053,6.053,0,0,0-.458,2.568,9.538,9.538,0,0,0,.458,3.026,7.978,7.978,0,0,0,1.376,2.293,5.869,5.869,0,0,0,2.017,1.284,6.052,6.052,0,0,0,2.568.459h1.467l1.376-.367,1.376-.642a5.5,5.5,0,0,0,1.1-1.009h0l-.825-1.1a.55.55,0,0,0-.55-.275l-.55.183-.734.459-1.1.275a3.118,3.118,0,0,1-1.376.183,3.76,3.76,0,0,1-1.467-.275,2.384,2.384,0,0,1-1.192-.734,4.86,4.86,0,0,1-.734-1.376,8.07,8.07,0,0,1-.367-1.834h8.345a.734.734,0,0,0,.55-.183c.183-.183.183-.459.183-.917a5.869,5.869,0,0,0-.459-2.568,5.135,5.135,0,0,0-1.1-1.834Zm-1.009,3.668h-6.419a4.493,4.493,0,0,1,1.1-2.293,3.026,3.026,0,0,1,2.293-.825,2.935,2.935,0,0,1,1.284.275l.917.642a2.2,2.2,0,0,1,.55,1.009,5.593,5.593,0,0,1,.275,1.192Z" transform="translate(-13.632 -0.988)" fill="#1e7ae0"/>
    <rect id="Rectangle_21" data-name="Rectangle 21" width="2.934" height="19.138" transform="translate(165.065 5.227)" fill="#1e7ae0"/>
  </g>
</svg>
