<?xml version="1.0" encoding="UTF-8"?>
<svg xmlns="http://www.w3.org/2000/svg" xmlns:xlink="http://www.w3.org/1999/xlink" width="168px" height="28px" viewBox="0 0 168 28" version="1.1">
<g id="surface1">
<path style=" stroke:none;fill-rule:nonzero;fill:rgb(11.764706%,47.843137%,87.843138%);fill-opacity:1;" d="M 29.160156 12.566406 C 28.082031 11.207031 26.65625 10.164062 25.035156 9.542969 C 25.035156 7.125 24.117188 4.796875 22.46875 3.03125 C 20.804688 1.171875 18.449219 0.078125 15.957031 0.00390625 C 10.808594 -0.152344 6.484375 3.847656 6.238281 8.992188 L 6.238281 9.542969 C 2.464844 11.019531 -0.0117188 14.660156 0 18.710938 C -0.0507812 23.960938 4.109375 28.28125 9.355469 28.433594 C 11.699219 28.421875 13.953125 27.539062 15.683594 25.957031 C 17.378906 27.53125 19.601562 28.414062 21.917969 28.433594 C 27.1875 28.332031 31.375 23.980469 31.273438 18.710938 C 31.273438 16.488281 30.53125 14.324219 29.164062 12.566406 Z M 12.5625 18.710938 C 12.53125 20.351562 12.941406 21.964844 13.753906 23.390625 C 12.59375 24.566406 11.007812 25.230469 9.355469 25.222656 C 5.757812 25.222656 2.84375 22.308594 2.84375 18.710938 C 2.84375 15.117188 5.757812 12.199219 9.355469 12.199219 C 10.105469 12.1875 10.847656 12.3125 11.554688 12.566406 L 11.644531 12.566406 L 12.195312 12.75 C 12.460938 13.03125 12.820312 13.195312 13.203125 13.210938 C 13.640625 13.226562 14.054688 13.019531 14.304688 12.660156 C 14.875 11.972656 14.792969 10.957031 14.121094 10.367188 C 13.667969 9.984375 13.136719 9.703125 12.5625 9.542969 C 11.539062 9.144531 10.453125 8.925781 9.351562 8.898438 C 9.800781 5.726562 12.550781 3.386719 15.757812 3.457031 C 18.960938 3.527344 21.609375 5.984375 21.914062 9.175781 L 21.914062 9.632812 C 21.953125 11.761719 20.964844 13.773438 19.257812 15.042969 C 18.621094 15.59375 18.464844 16.519531 18.890625 17.242188 C 19.15625 17.703125 19.644531 17.984375 20.175781 17.976562 C 20.507812 17.9375 20.824219 17.8125 21.089844 17.609375 C 22.703125 16.386719 23.890625 14.6875 24.484375 12.75 C 26.78125 13.847656 28.246094 16.167969 28.242188 18.710938 C 28.246094 22.203125 25.496094 25.074219 22.007812 25.222656 L 21.914062 25.222656 C 20.222656 25.199219 18.605469 24.496094 17.433594 23.273438 C 16.261719 22.050781 15.628906 20.40625 15.679688 18.710938 C 15.667969 18.300781 15.503906 17.910156 15.222656 17.613281 C 14.929688 17.320312 14.535156 17.152344 14.121094 17.152344 C 13.28125 17.199219 12.609375 17.871094 12.5625 18.710938 Z M 12.5625 18.710938 "/>
<path style=" stroke:none;fill-rule:nonzero;fill:rgb(13.333334%,13.333334%,13.333334%);fill-opacity:1;" d="M 54.839844 20.363281 L 53.921875 21.003906 L 53.003906 21.464844 L 51.90625 21.738281 L 50.527344 21.738281 C 49.714844 21.726562 48.90625 21.570312 48.144531 21.277344 C 47.460938 20.96875 46.835938 20.535156 46.3125 19.996094 C 45.746094 19.351562 45.308594 18.605469 45.027344 17.796875 C 44.417969 15.949219 44.417969 13.957031 45.027344 12.109375 C 45.292969 11.3125 45.695312 10.566406 46.21875 9.910156 C 46.761719 9.347656 47.417969 8.910156 48.144531 8.625 C 48.898438 8.3125 49.714844 8.1875 50.527344 8.257812 L 52.453125 8.441406 L 53.648438 8.992188 L 54.472656 9.539062 C 54.660156 9.671875 54.886719 9.738281 55.113281 9.722656 L 55.574219 9.722656 L 55.847656 9.449219 L 56.859375 7.984375 L 56.765625 7.984375 C 56 7.214844 55.097656 6.59375 54.109375 6.148438 C 52.972656 5.683594 51.753906 5.464844 50.527344 5.507812 C 49.269531 5.503906 48.023438 5.75 46.859375 6.242188 C 45.753906 6.664062 44.753906 7.320312 43.925781 8.167969 C 43.078125 9.027344 42.421875 10.058594 42 11.191406 C 41.59375 12.4375 41.378906 13.734375 41.359375 15.046875 C 41.378906 16.355469 41.59375 17.652344 42 18.898438 C 42.414062 19.988281 43.035156 20.984375 43.835938 21.832031 C 44.5625 22.730469 45.511719 23.425781 46.585938 23.847656 C 47.777344 24.335938 49.054688 24.585938 50.347656 24.582031 C 51.707031 24.613281 53.054688 24.328125 54.289062 23.757812 C 55.367188 23.296875 56.316406 22.570312 57.039062 21.648438 L 57.132812 21.648438 L 55.847656 20.273438 C 55.574219 19.996094 55.207031 19.996094 54.839844 20.363281 Z M 54.839844 20.363281 "/>
<path style=" stroke:none;fill-rule:nonzero;fill:rgb(13.333334%,13.333334%,13.333334%);fill-opacity:1;" d="M 59.058594 5.230469 L 61.992188 5.230469 L 61.992188 24.371094 L 59.058594 24.371094 Z M 59.058594 5.230469 "/>
<path style=" stroke:none;fill-rule:nonzero;fill:rgb(13.333334%,13.333334%,13.333334%);fill-opacity:1;" d="M 75.660156 12.75 C 75.082031 12.167969 74.394531 11.703125 73.644531 11.375 C 71.921875 10.765625 70.042969 10.765625 68.324219 11.375 C 67.570312 11.703125 66.886719 12.167969 66.308594 12.75 C 65.722656 13.34375 65.28125 14.066406 65.023438 14.859375 C 64.679688 15.765625 64.523438 16.734375 64.5625 17.703125 C 64.523438 18.671875 64.679688 19.640625 65.023438 20.546875 C 65.28125 21.339844 65.722656 22.058594 66.308594 22.65625 C 66.835938 23.292969 67.535156 23.773438 68.324219 24.03125 C 70.042969 24.640625 71.921875 24.640625 73.644531 24.03125 C 74.433594 23.773438 75.132812 23.292969 75.660156 22.65625 C 76.246094 22.058594 76.683594 21.339844 76.945312 20.546875 C 77.554688 18.699219 77.554688 16.707031 76.945312 14.859375 C 76.683594 14.066406 76.246094 13.34375 75.660156 12.75 Z M 74.460938 17.703125 C 74.503906 18.902344 74.183594 20.082031 73.542969 21.097656 C 72.871094 21.789062 71.941406 22.183594 70.976562 22.183594 C 70.007812 22.183594 69.082031 21.789062 68.40625 21.097656 C 67.726562 20.101562 67.402344 18.90625 67.492188 17.703125 C 67.402344 16.5 67.726562 15.304688 68.40625 14.308594 C 69.082031 13.617188 70.007812 13.222656 70.976562 13.222656 C 71.941406 13.222656 72.871094 13.617188 73.542969 14.308594 C 74.183594 15.324219 74.503906 16.503906 74.460938 17.703125 Z M 74.460938 17.703125 "/>
<path style=" stroke:none;fill-rule:nonzero;fill:rgb(13.333334%,13.333334%,13.333334%);fill-opacity:1;" d="M 88.21875 20.730469 C 87.792969 21.175781 87.296875 21.546875 86.753906 21.828125 C 86.238281 22.082031 85.671875 22.207031 85.101562 22.195312 C 84.421875 22.277344 83.746094 22.042969 83.265625 21.554688 C 82.882812 20.953125 82.691406 20.25 82.71875 19.539062 L 82.71875 11.101562 L 79.78125 11.101562 L 79.78125 19.539062 C 79.777344 20.21875 79.871094 20.898438 80.058594 21.554688 C 80.191406 22.160156 80.511719 22.703125 80.972656 23.113281 C 81.347656 23.578125 81.816406 23.953125 82.351562 24.214844 C 82.96875 24.441406 83.617188 24.566406 84.277344 24.582031 L 85.558594 24.398438 L 86.660156 24.03125 L 87.667969 23.390625 L 88.402344 22.65625 L 88.585938 23.753906 C 88.671875 24.085938 88.976562 24.316406 89.320312 24.304688 L 91.0625 24.304688 L 91.0625 11.101562 L 88.21875 11.101562 Z M 88.21875 20.730469 "/>
<path style=" stroke:none;fill-rule:nonzero;fill:rgb(13.333334%,13.333334%,13.333334%);fill-opacity:1;" d="M 102.707031 5.230469 L 102.707031 12.109375 L 101.332031 11.191406 C 100.683594 10.957031 100.003906 10.835938 99.316406 10.824219 C 97.695312 10.796875 96.160156 11.546875 95.1875 12.84375 C 94.648438 13.492188 94.246094 14.238281 93.996094 15.042969 C 93.726562 15.933594 93.605469 16.863281 93.628906 17.792969 C 93.601562 18.753906 93.726562 19.714844 93.996094 20.636719 C 94.164062 21.410156 94.507812 22.132812 95.003906 22.746094 C 95.433594 23.296875 95.964844 23.765625 96.5625 24.121094 C 97.203125 24.382812 97.890625 24.507812 98.582031 24.488281 C 99.4375 24.5 100.285156 24.3125 101.058594 23.9375 C 101.730469 23.53125 102.34375 23.039062 102.890625 22.472656 L 103.074219 23.757812 C 103.160156 24.089844 103.464844 24.316406 103.808594 24.304688 L 105.550781 24.304688 L 105.550781 5.230469 Z M 102.707031 14.402344 L 102.707031 20.453125 C 102.320312 20.953125 101.855469 21.386719 101.332031 21.738281 C 100.769531 22.039062 100.136719 22.199219 99.496094 22.195312 C 99.085938 22.203125 98.675781 22.109375 98.304688 21.921875 C 97.941406 21.761719 97.625 21.507812 97.390625 21.1875 C 97.097656 20.78125 96.910156 20.308594 96.839844 19.8125 C 96.644531 19.15625 96.550781 18.476562 96.5625 17.796875 C 96.496094 16.566406 96.816406 15.347656 97.480469 14.308594 C 98.058594 13.527344 98.984375 13.082031 99.957031 13.117188 C 100.460938 13.109375 100.957031 13.203125 101.425781 13.394531 C 101.929688 13.617188 102.371094 13.964844 102.707031 14.402344 Z M 102.707031 14.402344 "/>
<path style=" stroke:none;fill-rule:nonzero;fill:rgb(11.764706%,47.843137%,87.843138%);fill-opacity:1;" d="M 120.5 7.339844 C 119.878906 6.765625 119.121094 6.355469 118.300781 6.148438 C 117.289062 5.84375 116.238281 5.6875 115.179688 5.691406 L 109.3125 5.691406 L 109.3125 24.304688 L 112.429688 24.304688 L 112.429688 17.609375 L 115.179688 17.609375 C 116.203125 17.640625 117.222656 17.515625 118.207031 17.242188 C 119.019531 16.96875 119.765625 16.53125 120.40625 15.960938 C 121.023438 15.445312 121.496094 14.785156 121.78125 14.035156 C 122.128906 13.257812 122.285156 12.40625 122.242188 11.558594 C 122.261719 10.746094 122.136719 9.941406 121.875 9.175781 C 121.550781 8.472656 121.082031 7.847656 120.496094 7.339844 Z M 119.121094 11.558594 C 119.136719 12.0625 119.042969 12.5625 118.847656 13.027344 C 118.714844 13.457031 118.460938 13.839844 118.113281 14.125 C 117.789062 14.472656 117.378906 14.726562 116.921875 14.859375 C 116.359375 15.046875 115.773438 15.140625 115.179688 15.136719 L 112.429688 15.136719 L 112.429688 8.164062 L 115.179688 8.164062 C 115.773438 8.160156 116.359375 8.253906 116.921875 8.441406 C 117.355469 8.578125 117.757812 8.796875 118.109375 9.082031 C 118.484375 9.34375 118.746094 9.738281 118.84375 10.183594 C 119.03125 10.617188 119.128906 11.085938 119.121094 11.558594 Z M 119.121094 11.558594 "/>
<path style=" stroke:none;fill-rule:nonzero;fill:rgb(11.764706%,47.843137%,87.843138%);fill-opacity:1;" d="M 132.695312 12.292969 C 132.253906 11.824219 131.722656 11.449219 131.136719 11.191406 C 130.488281 10.964844 129.804688 10.84375 129.117188 10.824219 C 127.140625 10.808594 125.230469 11.566406 123.800781 12.933594 L 123.707031 12.933594 L 124.257812 13.851562 C 124.332031 14.015625 124.460938 14.144531 124.625 14.21875 C 124.785156 14.332031 124.976562 14.394531 125.175781 14.402344 L 125.816406 14.21875 L 126.550781 13.761719 L 127.46875 13.300781 L 128.753906 13.117188 C 129.394531 13.097656 130.019531 13.328125 130.492188 13.761719 C 130.902344 14.382812 131.097656 15.125 131.042969 15.867188 L 131.042969 16.695312 C 129.8125 16.707031 128.585938 16.828125 127.375 17.0625 C 126.511719 17.292969 125.679688 17.632812 124.898438 18.070312 C 124.339844 18.375 123.867188 18.816406 123.523438 19.355469 C 123.273438 19.804688 123.148438 20.3125 123.15625 20.824219 C 123.144531 21.390625 123.238281 21.949219 123.433594 22.476562 C 123.621094 22.902344 123.90625 23.277344 124.257812 23.578125 C 124.589844 23.898438 125 24.121094 125.449219 24.21875 C 125.917969 24.398438 126.414062 24.492188 126.917969 24.492188 L 128.292969 24.3125 L 129.394531 23.945312 L 130.402344 23.394531 L 131.320312 22.660156 L 131.59375 23.578125 C 131.632812 23.804688 131.765625 24.003906 131.960938 24.128906 L 133.886719 24.128906 L 133.886719 15.960938 C 133.890625 15.25 133.800781 14.539062 133.613281 13.851562 C 133.359375 13.300781 133.054688 12.78125 132.695312 12.292969 Z M 131.042969 18.621094 L 131.042969 20.914062 C 130.648438 21.410156 130.148438 21.820312 129.578125 22.105469 C 129.007812 22.382812 128.375 22.511719 127.742188 22.472656 L 127.007812 22.472656 L 126.460938 22.195312 L 126 21.648438 C 125.917969 21.410156 125.886719 21.160156 125.90625 20.914062 C 125.914062 20.617188 126.011719 20.328125 126.183594 20.089844 C 126.398438 19.804688 126.679688 19.582031 127.007812 19.445312 L 128.660156 18.894531 Z M 131.042969 18.621094 "/>
<path style=" stroke:none;fill-rule:nonzero;fill:rgb(11.764706%,47.843137%,87.843138%);fill-opacity:1;" d="M 147.183594 12.292969 C 146.796875 11.828125 146.289062 11.480469 145.71875 11.285156 C 145.113281 11.011719 144.453125 10.886719 143.789062 10.917969 L 142.597656 10.917969 C 142.207031 10.996094 141.832031 11.152344 141.5 11.375 L 140.488281 11.925781 L 139.664062 12.660156 L 139.480469 11.558594 C 139.394531 11.226562 139.089844 11 138.746094 11.011719 L 137.003906 11.011719 L 137.003906 24.308594 L 139.847656 24.308594 L 139.847656 14.769531 C 140.289062 14.34375 140.785156 13.976562 141.316406 13.667969 C 141.824219 13.390625 142.386719 13.234375 142.964844 13.210938 C 143.65625 13.164062 144.332031 13.433594 144.800781 13.945312 C 145.242188 14.519531 145.46875 15.234375 145.441406 15.960938 L 145.441406 24.304688 L 148.285156 24.304688 L 148.285156 15.960938 C 148.289062 15.25 148.199219 14.539062 148.011719 13.851562 C 147.828125 13.289062 147.546875 12.761719 147.183594 12.292969 Z M 147.183594 12.292969 "/>
<path style=" stroke:none;fill-rule:nonzero;fill:rgb(11.764706%,47.843137%,87.843138%);fill-opacity:1;" d="M 161.03125 12.476562 C 160.519531 11.945312 159.890625 11.535156 159.195312 11.285156 C 158.460938 11.019531 157.683594 10.898438 156.902344 10.917969 C 156.027344 10.917969 155.160156 11.074219 154.335938 11.375 C 153.558594 11.703125 152.871094 12.207031 152.320312 12.84375 C 151.785156 13.421875 151.378906 14.109375 151.128906 14.859375 C 150.789062 15.671875 150.632812 16.550781 150.667969 17.429688 C 150.65625 18.453125 150.8125 19.476562 151.128906 20.453125 C 151.453125 21.289062 151.917969 22.066406 152.503906 22.746094 C 153.082031 23.308594 153.765625 23.746094 154.519531 24.03125 C 155.332031 24.367188 156.207031 24.527344 157.089844 24.488281 L 158.554688 24.488281 L 159.929688 24.121094 L 161.308594 23.480469 C 161.71875 23.195312 162.085938 22.855469 162.40625 22.472656 L 161.582031 21.371094 C 161.472656 21.175781 161.253906 21.066406 161.03125 21.097656 L 160.480469 21.28125 L 159.746094 21.738281 L 158.648438 22.015625 C 158.207031 22.175781 157.738281 22.238281 157.273438 22.195312 C 156.769531 22.203125 156.269531 22.109375 155.804688 21.921875 C 155.34375 21.800781 154.929688 21.546875 154.613281 21.1875 C 154.296875 20.773438 154.046875 20.308594 153.878906 19.8125 C 153.6875 19.21875 153.5625 18.601562 153.511719 17.976562 L 161.855469 17.976562 C 162.058594 17.996094 162.257812 17.929688 162.40625 17.796875 C 162.589844 17.613281 162.589844 17.335938 162.589844 16.878906 C 162.632812 16 162.476562 15.121094 162.132812 14.308594 C 161.898438 13.628906 161.523438 13.003906 161.03125 12.476562 Z M 160.023438 16.144531 L 153.601562 16.144531 C 153.742188 15.289062 154.125 14.492188 154.703125 13.851562 C 155.316406 13.265625 156.148438 12.96875 156.996094 13.027344 C 157.4375 13.019531 157.878906 13.113281 158.28125 13.300781 L 159.195312 13.941406 C 159.464844 14.226562 159.65625 14.574219 159.746094 14.953125 C 159.882812 15.339844 159.972656 15.738281 160.023438 16.144531 Z M 160.023438 16.144531 "/>
<path style=" stroke:none;fill-rule:nonzero;fill:rgb(11.764706%,47.843137%,87.843138%);fill-opacity:1;" d="M 165.066406 5.230469 L 168 5.230469 L 168 24.371094 L 165.066406 24.371094 Z M 165.066406 5.230469 "/>
</g>
</svg>
