<?xml version="1.0" encoding="UTF-8"?>
<svg xmlns="http://www.w3.org/2000/svg" xmlns:xlink="http://www.w3.org/1999/xlink" width="168px" height="28px" viewBox="0 0 29 28" version="1.1">
<defs>
<filter id="alpha" filterUnits="objectBoundingBox" x="0%" y="0%" width="100%" height="100%">
  <feColorMatrix type="matrix" in="SourceGraphic" values="0 0 0 0 1 0 0 0 0 1 0 0 0 0 1 0 0 0 1 0"/>
</filter>
<mask id="mask0">
  <g filter="url(#alpha)">
<rect x="0" y="0" width="29" height="28" style="fill:rgb(0%,0%,0%);fill-opacity:0.101961;stroke:none;"/>
  </g>
</mask>
<clipPath id="clip1">
  <rect x="0" y="0" width="29" height="28"/>
</clipPath>
<g id="surface5" clip-path="url(#clip1)">
<path style=" stroke:none;fill-rule:nonzero;fill:rgb(23.921569%,32.156864%,38.82353%);fill-opacity:1;" d="M 18.238281 24.425781 C 15.195312 24.722656 9.792969 24.839844 5.113281 22.78125 C 3.53125 22.085938 2.03125 21.144531 0.734375 19.875 L 0.734375 25.914062 C 0.734375 26.085938 0.765625 26.25 0.824219 26.398438 C 1.015625 26.894531 1.492188 27.246094 2.050781 27.246094 L 19.332031 27.246094 C 19.890625 27.246094 20.367188 26.894531 20.558594 26.398438 C 20.617188 26.25 20.648438 26.085938 20.652344 25.917969 L 20.652344 24.089844 C 20.652344 24.089844 19.726562 24.28125 18.238281 24.425781 Z M 18.238281 24.425781 "/>
</g>
<mask id="mask1">
  <g filter="url(#alpha)">
<rect x="0" y="0" width="29" height="28" style="fill:rgb(0%,0%,0%);fill-opacity:0.101961;stroke:none;"/>
  </g>
</mask>
<clipPath id="clip2">
  <rect x="0" y="0" width="29" height="28"/>
</clipPath>
<g id="surface8" clip-path="url(#clip2)">
<path style=" stroke:none;fill-rule:nonzero;fill:rgb(23.921569%,32.156864%,38.82353%);fill-opacity:1;" d="M 7.089844 21.113281 C 8.191406 21.609375 9.410156 21.886719 10.691406 21.886719 C 11.988281 21.886719 13.21875 21.605469 14.328125 21.097656 C 17.050781 19.851562 19.035156 17.25 19.441406 14.140625 L 19.398438 14.175781 C 18.628906 17.136719 16.394531 19.496094 13.523438 20.414062 C 12.683594 20.683594 11.789062 20.828125 10.863281 20.828125 C 9.863281 20.828125 8.898438 20.65625 8 20.347656 C 5.339844 19.421875 3.253906 17.25 2.425781 14.519531 L 1.941406 14.132812 C 2.347656 17.257812 4.347656 19.871094 7.089844 21.113281 Z M 7.089844 21.113281 "/>
</g>
</defs>
<g id="surface1">
<path style=" stroke:none;fill-rule:nonzero;fill:rgb(23.921569%,32.156864%,38.82353%);fill-opacity:1;" d="M 4.839844 16.582031 C 4.847656 15.074219 4.789062 15.300781 4.574219 13.664062 C 4.738281 11.996094 4.011719 10.777344 4.011719 9.332031 C 4.011719 8.980469 3.585938 8.828125 3.660156 8.503906 C 3.199219 9.472656 2.9375 10.5625 2.9375 11.714844 C 2.9375 13.640625 3.664062 15.394531 4.851562 16.695312 C 4.847656 16.65625 4.84375 16.617188 4.839844 16.582031 Z M 4.839844 16.582031 "/>
<path style=" stroke:none;fill-rule:nonzero;fill:rgb(97.647059%,90.980393%,17.647059%);fill-opacity:1;" d="M 19.441406 14.140625 L 19.398438 14.175781 C 18.628906 17.136719 16.394531 19.496094 13.523438 20.414062 L 14.328125 21.097656 L 18.238281 24.425781 L 20.558594 26.398438 C 20.617188 26.25 20.648438 26.085938 20.652344 25.917969 C 20.652344 25.917969 20.652344 25.914062 20.652344 25.914062 L 20.652344 13.164062 Z M 19.441406 14.140625 "/>
<path style=" stroke:none;fill-rule:nonzero;fill:rgb(97.647059%,90.980393%,17.647059%);fill-opacity:1;" d="M 2.425781 14.519531 L 1.941406 14.132812 L 0.734375 13.164062 L 0.734375 25.914062 C 0.734375 26.085938 0.765625 26.25 0.824219 26.398438 L 5.113281 22.78125 L 7.089844 21.113281 L 8 20.347656 C 5.339844 19.421875 3.253906 17.25 2.425781 14.519531 Z M 2.425781 14.519531 "/>
<path style=" stroke:none;fill-rule:nonzero;fill:rgb(92.941177%,83.529413%,7.843138%);fill-opacity:0.894118;" d="M 18.238281 24.425781 L 14.328125 21.097656 L 13.523438 20.414062 C 12.683594 20.683594 11.789062 20.828125 10.863281 20.828125 C 9.863281 20.828125 8.898438 20.65625 8 20.347656 L 7.089844 21.113281 L 5.113281 22.78125 L 0.824219 26.398438 C 1.015625 26.894531 1.492188 27.246094 2.050781 27.246094 L 19.332031 27.246094 C 19.890625 27.246094 20.367188 26.894531 20.558594 26.398438 Z M 18.238281 24.425781 "/>
<use xlink:href="#surface5" mask="url(#mask0)"/>
<use xlink:href="#surface8" mask="url(#mask1)"/>
<path style=" stroke:none;fill-rule:nonzero;fill:rgb(100%,100%,100%);fill-opacity:1;" d="M 4.71875 5.488281 C 4.589844 5.617188 4.460938 5.75 4.335938 5.886719 C 4.332031 5.890625 4.332031 5.894531 4.328125 5.898438 C 4.308594 5.917969 4.292969 5.9375 4.273438 5.957031 C 4.28125 5.953125 4.285156 5.949219 4.289062 5.941406 C 5.886719 4.324219 8.09375 3.324219 10.53125 3.324219 C 15.40625 3.324219 19.359375 7.324219 19.359375 12.253906 C 19.359375 14.535156 18.511719 16.617188 17.121094 18.195312 C 18.707031 16.582031 19.691406 14.355469 19.691406 11.898438 C 19.691406 11.898438 19.691406 11.898438 19.691406 11.894531 C 19.691406 10.324219 19.289062 8.851562 18.585938 7.570312 C 18.480469 7.375 18.367188 7.183594 18.246094 7 C 17.851562 6.394531 17.386719 5.835938 16.859375 5.34375 C 16.425781 4.9375 15.953125 4.574219 15.445312 4.261719 C 15.132812 4.070312 14.804688 3.894531 14.464844 3.742188 C 13.6875 3.390625 12.84375 3.148438 11.964844 3.035156 C 11.605469 2.992188 11.238281 2.96875 10.863281 2.96875 C 10.441406 2.96875 10.027344 2.996094 9.621094 3.054688 C 8.71875 3.183594 7.859375 3.453125 7.066406 3.835938 C 6.71875 4.003906 6.382812 4.191406 6.0625 4.402344 C 5.582031 4.722656 5.132812 5.082031 4.71875 5.488281 Z M 4.71875 5.488281 "/>
<path style=" stroke:none;fill-rule:nonzero;fill:rgb(100%,100%,100%);fill-opacity:1;" d="M 7.769531 9.546875 C 7.957031 9.546875 8.109375 9.390625 8.109375 9.203125 C 8.109375 9.011719 7.957031 8.859375 7.769531 8.859375 C 7.582031 8.859375 7.429688 9.011719 7.429688 9.203125 C 7.429688 9.390625 7.582031 9.546875 7.769531 9.546875 Z M 7.769531 9.546875 "/>
<path style=" stroke:none;fill-rule:nonzero;fill:rgb(100%,100%,100%);fill-opacity:1;" d="M 14.453125 9.546875 C 14.640625 9.546875 14.792969 9.390625 14.792969 9.203125 C 14.792969 9.011719 14.640625 8.859375 14.453125 8.859375 C 14.265625 8.859375 14.113281 9.011719 14.113281 9.203125 C 14.113281 9.390625 14.265625 9.546875 14.453125 9.546875 Z M 14.453125 9.546875 "/>
<path style=" stroke:none;fill-rule:nonzero;fill:rgb(94.509804%,94.901961%,94.901961%);fill-opacity:1;" d="M 17.15625 18.152344 C 18.527344 16.578125 19.359375 14.515625 19.359375 12.253906 C 19.359375 7.324219 15.40625 3.324219 10.53125 3.324219 C 8.09375 3.324219 5.886719 4.324219 4.289062 5.941406 C 3.949219 6.324219 3.644531 6.734375 3.375 7.167969 C 3.265625 7.351562 3.160156 7.535156 3.058594 7.726562 C 2.539062 8.714844 2.199219 9.816406 2.082031 10.984375 C 2.050781 11.285156 2.039062 11.589844 2.039062 11.898438 C 2.039062 12.183594 2.050781 12.464844 2.078125 12.746094 C 2.132812 13.359375 2.25 13.953125 2.425781 14.519531 C 3.253906 17.25 5.339844 19.421875 8 20.347656 C 8.898438 20.65625 9.859375 20.828125 10.863281 20.828125 C 11.789062 20.828125 12.683594 20.683594 13.523438 20.414062 C 14.855469 19.988281 16.050781 19.253906 17.023438 18.289062 C 17.0625 18.25 17.15625 18.152344 17.15625 18.152344 Z M 16.734375 13.816406 C 16.578125 14.351562 16.363281 14.863281 16.097656 15.339844 C 14.878906 17.519531 12.597656 18.988281 9.984375 18.988281 C 7.960938 18.988281 6.136719 18.105469 4.851562 16.695312 C 3.664062 15.394531 2.9375 13.640625 2.9375 11.714844 C 2.9375 10.5625 3.199219 9.472656 3.660156 8.503906 C 4.808594 6.097656 7.210938 4.4375 9.984375 4.4375 C 10.277344 4.4375 10.5625 4.457031 10.847656 4.492188 C 14.332031 4.929688 17.03125 7.996094 17.03125 11.714844 C 17.03125 12.445312 16.925781 13.152344 16.734375 13.816406 Z M 16.734375 13.816406 "/>
<path style=" stroke:none;fill-rule:nonzero;fill:rgb(94.509804%,94.901961%,94.901961%);fill-opacity:1;" d="M 4.335938 5.886719 C 4.332031 5.890625 4.332031 5.894531 4.328125 5.898438 C 4.332031 5.894531 4.332031 5.890625 4.335938 5.886719 Z M 4.335938 5.886719 "/>
<path style=" stroke:none;fill-rule:nonzero;fill:rgb(35.294119%,21.176471%,12.54902%);fill-opacity:1;" d="M 19.648438 12.765625 C 19.613281 13.140625 19.554688 13.511719 19.472656 13.871094 C 19.449219 13.972656 19.425781 14.074219 19.398438 14.175781 L 19.441406 14.140625 L 20.652344 13.160156 Z M 19.648438 12.765625 "/>
<path style=" stroke:none;fill-rule:nonzero;fill:rgb(35.294119%,21.176471%,12.54902%);fill-opacity:1;" d="M 0.734375 13.164062 L 1.941406 14.132812 L 2.425781 14.519531 C 2.25 13.953125 2.132812 13.359375 2.078125 12.746094 L 1.867188 12.808594 L 0.734375 13.160156 "/>
<path style=" stroke:none;fill-rule:nonzero;fill:rgb(35.294119%,21.176471%,12.54902%);fill-opacity:1;" d="M 7.15625 15.027344 C 6.703125 15.027344 6.332031 15.402344 6.332031 15.863281 C 6.332031 16.324219 6.703125 16.699219 7.15625 16.699219 C 7.613281 16.699219 7.984375 16.324219 7.984375 15.863281 C 7.984375 15.402344 7.613281 15.027344 7.15625 15.027344 Z M 7.15625 15.027344 "/>
<path style=" stroke:none;fill-rule:nonzero;fill:rgb(35.294119%,21.176471%,12.54902%);fill-opacity:1;" d="M 14.046875 15.027344 C 13.589844 15.027344 13.21875 15.402344 13.21875 15.863281 C 13.21875 16.324219 13.589844 16.699219 14.046875 16.699219 C 14.503906 16.699219 14.871094 16.324219 14.871094 15.863281 C 14.871094 15.402344 14.503906 15.027344 14.046875 15.027344 Z M 14.046875 15.027344 "/>
<path style=" stroke:none;fill-rule:nonzero;fill:rgb(35.294119%,21.176471%,12.54902%);fill-opacity:1;" d="M 14.167969 8.335938 C 13.65625 8.335938 13.035156 8.914062 13.035156 9.429688 C 13.035156 9.949219 13.632812 10.710938 14.144531 10.710938 C 14.65625 10.710938 15.304688 10 15.304688 9.484375 C 15.304688 8.964844 14.679688 8.335938 14.167969 8.335938 Z M 14.453125 9.546875 C 14.265625 9.546875 14.113281 9.390625 14.113281 9.203125 C 14.113281 9.011719 14.265625 8.859375 14.453125 8.859375 C 14.640625 8.859375 14.792969 9.011719 14.792969 9.203125 C 14.792969 9.390625 14.640625 9.546875 14.453125 9.546875 Z M 14.453125 9.546875 "/>
<path style=" stroke:none;fill-rule:nonzero;fill:rgb(35.294119%,21.176471%,12.54902%);fill-opacity:1;" d="M 7.320312 8.363281 C 6.808594 8.363281 6.265625 8.964844 6.265625 9.484375 C 6.265625 10 6.914062 10.683594 7.425781 10.683594 C 7.933594 10.683594 8.582031 10 8.582031 9.484375 C 8.582031 8.964844 7.832031 8.363281 7.320312 8.363281 Z M 7.769531 9.546875 C 7.582031 9.546875 7.429688 9.390625 7.429688 9.203125 C 7.429688 9.011719 7.582031 8.859375 7.769531 8.859375 C 7.957031 8.859375 8.109375 9.011719 8.109375 9.203125 C 8.109375 9.390625 7.957031 9.546875 7.769531 9.546875 Z M 7.769531 9.546875 "/>
<path style=" stroke:none;fill-rule:nonzero;fill:rgb(99.607843%,95.294118%,87.450981%);fill-opacity:1;" d="M 25.425781 19.789062 C 25.6875 19.109375 25.988281 18.96875 26.109375 18.945312 C 23.117188 19.222656 23.417969 21.007812 23.613281 21.617188 C 23.652344 21.742188 23.6875 21.820312 23.6875 21.820312 C 23.6875 21.820312 23.839844 22.175781 24.242188 22.46875 C 24.546875 22.691406 24.996094 22.878906 25.636719 22.851562 C 27.625 22.882812 28.253906 19.125 28.253906 19.125 C 27.765625 19.988281 26.3125 19.859375 25.425781 19.789062 Z M 25.425781 19.789062 "/>
<path style=" stroke:none;fill-rule:nonzero;fill:rgb(99.607843%,95.294118%,87.450981%);fill-opacity:1;" d="M 4.328125 5.898438 C 4.332031 5.894531 4.332031 5.890625 4.335938 5.886719 C 4.460938 5.75 4.589844 5.617188 4.71875 5.488281 C 4.066406 4.96875 2.933594 4.3125 1.65625 4.621094 C 1.65625 4.621094 1.863281 6.140625 3.375 7.167969 C 3.644531 6.734375 3.949219 6.324219 4.289062 5.941406 C 4.285156 5.949219 4.28125 5.953125 4.273438 5.957031 C 4.292969 5.9375 4.308594 5.917969 4.328125 5.898438 Z M 4.328125 5.898438 "/>
<path style=" stroke:none;fill-rule:nonzero;fill:rgb(99.607843%,95.294118%,87.450981%);fill-opacity:1;" d="M 19.734375 4.621094 C 18.574219 4.339844 17.53125 4.859375 16.859375 5.34375 C 17.386719 5.835938 17.851562 6.394531 18.246094 7 C 19.550781 5.984375 19.734375 4.621094 19.734375 4.621094 Z M 19.734375 4.621094 "/>
<path style=" stroke:none;fill-rule:nonzero;fill:rgb(99.607843%,95.294118%,87.450981%);fill-opacity:1;" d="M 10.59375 12.644531 C 7.414062 12.644531 4.835938 14.347656 4.835938 16.453125 C 4.835938 16.496094 4.839844 16.539062 4.839844 16.582031 C 4.84375 16.617188 4.847656 16.65625 4.851562 16.695312 C 6.136719 18.105469 7.960938 18.988281 9.984375 18.988281 C 12.597656 18.988281 14.878906 17.519531 16.097656 15.339844 C 15.378906 13.777344 13.183594 12.644531 10.59375 12.644531 Z M 7.15625 16.699219 C 6.703125 16.699219 6.332031 16.324219 6.332031 15.863281 C 6.332031 15.402344 6.703125 15.027344 7.15625 15.027344 C 7.613281 15.027344 7.984375 15.402344 7.984375 15.863281 C 7.984375 16.324219 7.613281 16.699219 7.15625 16.699219 Z M 14.046875 16.699219 C 13.589844 16.699219 13.21875 16.324219 13.21875 15.863281 C 13.21875 15.402344 13.589844 15.027344 14.046875 15.027344 C 14.503906 15.027344 14.871094 15.402344 14.871094 15.863281 C 14.871094 16.324219 14.503906 16.699219 14.046875 16.699219 Z M 14.046875 16.699219 "/>
<path style=" stroke:none;fill-rule:nonzero;fill:rgb(99.607843%,95.294118%,87.450981%);fill-opacity:1;" d="M 7.066406 0.742188 C 5.734375 1.957031 7.054688 3.820312 7.066406 3.835938 C 7.859375 3.453125 8.71875 3.183594 9.621094 3.054688 C 7.902344 2.800781 7.066406 0.742188 7.066406 0.742188 Z M 7.066406 0.742188 "/>
<path style=" stroke:none;fill-rule:nonzero;fill:rgb(99.607843%,95.294118%,87.450981%);fill-opacity:1;" d="M 14.40625 0.742188 C 14.40625 0.742188 13.605469 2.710938 11.964844 3.035156 C 12.84375 3.148438 13.6875 3.390625 14.464844 3.742188 C 14.710938 3.351562 15.566406 1.800781 14.40625 0.742188 Z M 14.40625 0.742188 "/>
<path style=" stroke:none;fill-rule:nonzero;fill:rgb(52.941179%,39.607844%,29.019609%);fill-opacity:1;" d="M 16.734375 13.816406 C 16.925781 13.152344 17.214844 11.894531 17.214844 11.164062 C 17.214844 7.445312 14.332031 4.929688 10.847656 4.492188 C 10.6875 6.574219 11.113281 10.957031 16.734375 13.816406 Z M 13.242188 9.484375 C 13.242188 8.964844 13.65625 8.546875 14.167969 8.546875 C 14.679688 8.546875 15.097656 8.964844 15.097656 9.484375 C 15.097656 10 14.679688 10.421875 14.167969 10.421875 C 13.65625 10.421875 13.242188 10 13.242188 9.484375 Z M 13.242188 9.484375 "/>
<path style=" stroke:none;fill-rule:nonzero;fill:rgb(70.980394%,52.941179%,39.607844%);fill-opacity:1;" d="M 23.6875 21.820312 C 23.6875 21.820312 23.652344 21.742188 23.613281 21.617188 C 23.335938 21.863281 22.65625 22.375 21.628906 22.539062 C 21.628906 22.539062 21.625 22.539062 21.625 22.539062 C 21.328125 22.585938 21.003906 22.601562 20.652344 22.574219 L 20.652344 24.664062 C 20.800781 24.605469 20.988281 24.527344 21.199219 24.4375 C 21.601562 24.257812 22.085938 24.023438 22.578125 23.738281 C 22.578125 23.738281 22.582031 23.734375 22.582031 23.734375 C 23.183594 23.382812 23.785156 22.957031 24.242188 22.46875 C 23.839844 22.175781 23.6875 21.820312 23.6875 21.820312 Z M 23.6875 21.820312 "/>
<path style=" stroke:none;fill-rule:nonzero;fill:rgb(70.980394%,52.941179%,39.607844%);fill-opacity:1;" d="M 1.65625 4.621094 C 2.933594 4.3125 4.066406 4.96875 4.71875 5.488281 C 5.132812 5.082031 5.582031 4.722656 6.0625 4.40625 C 4.277344 2.117188 0.894531 3.503906 0.894531 3.503906 C 0.652344 5.757812 1.855469 7.027344 3.058594 7.726562 C 3.160156 7.535156 3.265625 7.351562 3.375 7.167969 C 1.863281 6.140625 1.65625 4.621094 1.65625 4.621094 Z M 1.65625 4.621094 "/>
<path style=" stroke:none;fill-rule:nonzero;fill:rgb(70.980394%,52.941179%,39.607844%);fill-opacity:1;" d="M 15.445312 4.261719 C 15.953125 4.574219 16.425781 4.9375 16.859375 5.34375 C 17.53125 4.859375 18.574219 4.339844 19.734375 4.621094 C 19.734375 4.621094 19.550781 5.984375 18.246094 7 C 18.367188 7.183594 18.480469 7.375 18.585938 7.570312 C 19.695312 6.84375 20.722656 5.597656 20.496094 3.503906 C 20.496094 3.503906 17.257812 2.175781 15.445312 4.261719 Z M 15.445312 4.261719 "/>
<path style=" stroke:none;fill-rule:nonzero;fill:rgb(70.980394%,52.941179%,39.607844%);fill-opacity:1;" d="M 10.929688 4.492188 C 10.648438 4.457031 10.277344 4.4375 9.984375 4.4375 C 7.210938 4.4375 4.808594 6.097656 3.660156 8.503906 C 3.585938 8.828125 3.542969 9.164062 3.542969 9.515625 C 3.542969 9.625 3.550781 9.722656 3.550781 9.824219 C 3.5625 10.117188 3.585938 10.386719 3.613281 10.652344 C 3.929688 12.507812 4.199219 13.808594 4.601562 15.609375 C 4.605469 15.640625 4.617188 15.671875 4.621094 15.699219 C 4.664062 16 4.738281 16.292969 4.839844 16.582031 C 4.839844 16.539062 4.835938 16.496094 4.835938 16.453125 C 4.835938 14.347656 7.414062 12.644531 10.59375 12.644531 C 13.183594 12.644531 15.378906 13.777344 16.097656 15.339844 C 16.363281 14.863281 16.578125 14.351562 16.734375 13.816406 C 13.949219 12.074219 12.773438 10.761719 11.984375 9.046875 C 11.195312 7.335938 10.847656 5.535156 10.929688 4.492188 Z M 7.425781 10.421875 C 6.914062 10.421875 6.5 10 6.5 9.484375 C 6.5 8.964844 6.914062 8.546875 7.425781 8.546875 C 7.9375 8.546875 8.351562 8.964844 8.351562 9.484375 C 8.351562 10 7.933594 10.421875 7.425781 10.421875 Z M 7.425781 10.421875 "/>
</g>
</svg>
