<?xml version="1.0" encoding="UTF-8"?>
<svg xmlns="http://www.w3.org/2000/svg" xmlns:xlink="http://www.w3.org/1999/xlink" width="168px" height="28px" viewBox="0 0 47 28" version="1.1">
<g id="surface1">
<path style=" stroke:none;fill-rule:nonzero;fill:rgb(31.37255%,74.117649%,21.568628%);fill-opacity:1;" d="M 38.199219 8.746094 C 37.613281 8.746094 37.199219 8.3125 37.199219 7.726562 C 37.199219 7.140625 37.613281 6.707031 38.199219 6.707031 C 38.789062 6.707031 39.207031 7.140625 39.207031 7.726562 C 39.207031 8.3125 38.789062 8.746094 38.199219 8.746094 Z M 38.199219 5.707031 C 37.039062 5.707031 36.214844 6.570312 36.214844 7.726562 C 36.214844 8.882812 37.039062 9.746094 38.199219 9.746094 C 39.363281 9.746094 40.1875 8.882812 40.1875 7.726562 C 40.1875 6.570312 39.363281 5.707031 38.199219 5.707031 Z M 38.195312 10.789062 C 36.4375 10.789062 35.1875 9.480469 35.1875 7.726562 C 35.1875 5.96875 36.4375 4.664062 38.195312 4.664062 C 39.964844 4.664062 41.214844 5.96875 41.214844 7.726562 C 41.214844 9.480469 39.964844 10.789062 38.195312 10.789062 Z M 38.195312 3.53125 C 35.785156 3.53125 34.074219 5.320312 34.074219 7.726562 C 34.074219 10.128906 35.785156 11.921875 38.195312 11.921875 C 40.617188 11.921875 42.328125 10.128906 42.328125 7.726562 C 42.328125 5.320312 40.617188 3.53125 38.195312 3.53125 Z M 9.347656 11.035156 L 8.109375 10.734375 C 6.984375 10.46875 6.410156 10.171875 6.410156 9.34375 C 6.410156 8.40625 7.351562 8.03125 8.203125 8.03125 C 9.066406 8.03125 9.695312 8.46875 10.066406 9.152344 C 10.066406 9.15625 10.070312 9.15625 10.070312 9.160156 C 10.078125 9.175781 10.089844 9.191406 10.097656 9.203125 C 10.214844 9.382812 10.410156 9.503906 10.621094 9.503906 C 10.984375 9.503906 11.242188 9.238281 11.242188 8.871094 C 11.242188 8.730469 11.214844 8.582031 11.148438 8.472656 C 10.515625 7.378906 9.472656 6.90625 8.277344 6.90625 C 6.652344 6.90625 5.082031 7.730469 5.082031 9.550781 C 5.082031 11.222656 6.707031 11.710938 7.296875 11.859375 L 8.476562 12.140625 C 9.382812 12.367188 10.121094 12.667969 10.121094 13.546875 C 10.121094 14.5625 9.085938 15.011719 8.089844 15.011719 C 7.074219 15.011719 6.324219 14.484375 5.808594 13.707031 L 5.804688 13.707031 C 5.691406 13.535156 5.511719 13.414062 5.292969 13.414062 C 4.941406 13.414062 4.660156 13.707031 4.671875 14.066406 C 4.675781 14.210938 4.726562 14.335938 4.796875 14.441406 C 5.609375 15.675781 6.78125 16.136719 8.089844 16.136719 C 9.769531 16.136719 11.449219 15.347656 11.449219 13.433594 C 11.449219 12.199219 10.546875 11.316406 9.347656 11.035156 Z M 17.601562 15.007812 C 15.609375 15.007812 14.355469 13.488281 14.355469 11.515625 C 14.355469 9.546875 15.609375 8.027344 17.601562 8.027344 C 19.613281 8.027344 20.867188 9.546875 20.867188 11.515625 C 20.867188 13.488281 19.613281 15.007812 17.601562 15.007812 Z M 17.601562 6.898438 C 14.925781 6.898438 13.027344 8.871094 13.027344 11.515625 C 13.027344 14.164062 14.925781 16.132812 17.601562 16.132812 C 20.296875 16.132812 22.199219 14.164062 22.199219 11.515625 C 22.199219 8.871094 20.296875 6.898438 17.601562 6.898438 Z M 30.5625 14.050781 C 30.515625 14.09375 30.46875 14.136719 30.417969 14.179688 C 30.355469 14.238281 30.277344 14.304688 30.191406 14.371094 C 29.671875 14.753906 29.015625 14.976562 28.25 14.976562 C 26.257812 14.976562 25.003906 13.457031 25.003906 11.484375 C 25.003906 9.515625 26.257812 7.996094 28.25 7.996094 C 30.261719 7.996094 31.515625 9.515625 31.515625 11.484375 C 31.515625 12.515625 31.175781 13.417969 30.5625 14.050781 Z M 27.582031 19.054688 C 27.730469 19.054688 27.886719 19.042969 28.046875 19.023438 C 28.339844 18.984375 28.609375 18.96875 28.851562 18.96875 C 29.984375 18.976562 30.5625 19.308594 30.910156 19.695312 C 31.257812 20.085938 31.390625 20.613281 31.390625 21.058594 C 31.390625 21.273438 31.355469 21.464844 31.320312 21.582031 C 31.148438 22.117188 30.796875 22.480469 30.261719 22.753906 C 29.730469 23.019531 29.019531 23.15625 28.277344 23.15625 C 28.011719 23.15625 27.742188 23.140625 27.476562 23.105469 C 26.972656 23.046875 26.304688 22.828125 25.820312 22.445312 C 25.578125 22.253906 25.375 22.023438 25.234375 21.757812 C 25.09375 21.484375 25.007812 21.171875 25.007812 20.773438 L 25.007812 20.726562 C 25.023438 19.988281 25.355469 19.5 25.722656 19.144531 C 25.902344 18.96875 26.089844 18.839844 26.222656 18.757812 C 26.246094 18.746094 26.265625 18.734375 26.285156 18.722656 C 26.640625 18.9375 27.085938 19.054688 27.582031 19.054688 Z M 28.25 6.867188 C 25.574219 6.867188 23.671875 8.839844 23.671875 11.484375 C 23.671875 13.273438 24.542969 14.753906 25.933594 15.523438 C 25.914062 15.542969 25.894531 15.5625 25.878906 15.582031 C 25.519531 15.980469 25.335938 16.492188 25.335938 17.011719 C 25.332031 17.242188 25.371094 17.476562 25.449219 17.699219 C 25.269531 17.816406 25.054688 17.976562 24.835938 18.1875 C 24.304688 18.691406 23.734375 19.535156 23.714844 20.707031 C 23.714844 20.734375 23.714844 20.753906 23.714844 20.773438 C 23.714844 21.375 23.855469 21.917969 24.09375 22.375 C 24.457031 23.0625 25.019531 23.539062 25.597656 23.855469 C 26.179688 24.175781 26.789062 24.34375 27.320312 24.410156 C 27.636719 24.449219 27.957031 24.46875 28.277344 24.46875 C 29.167969 24.46875 30.058594 24.316406 30.832031 23.929688 C 31.601562 23.550781 32.265625 22.898438 32.550781 21.984375 C 32.632812 21.710938 32.679688 21.402344 32.679688 21.058594 C 32.679688 20.367188 32.484375 19.519531 31.871094 18.820312 C 31.257812 18.117188 30.242188 17.648438 28.851562 17.65625 C 28.550781 17.65625 28.230469 17.675781 27.886719 17.71875 C 27.777344 17.734375 27.675781 17.738281 27.582031 17.738281 C 27.15625 17.734375 26.941406 17.617188 26.816406 17.492188 C 26.691406 17.371094 26.628906 17.203125 26.625 17.011719 C 26.625 16.816406 26.699219 16.609375 26.828125 16.46875 C 26.960938 16.328125 27.125 16.234375 27.410156 16.230469 C 27.433594 16.230469 27.460938 16.230469 27.488281 16.234375 C 27.671875 16.246094 27.847656 16.253906 28.019531 16.253906 C 29.445312 16.257812 30.515625 15.808594 31.242188 15.191406 C 31.972656 14.574219 32.359375 13.824219 32.542969 13.230469 L 32.539062 13.230469 C 32.738281 12.699219 32.84375 12.109375 32.84375 11.484375 C 32.84375 8.839844 30.945312 6.867188 28.25 6.867188 Z M 28.25 6.867188 "/>
</g>
</svg>
