<?xml version="1.0" encoding="UTF-8"?>
<svg xmlns="http://www.w3.org/2000/svg" xmlns:xlink="http://www.w3.org/1999/xlink" width="60px" height="35px" viewBox="0 0 59 35" version="1.1">
<g id="surface1">
<path style=" stroke:none;fill-rule:nonzero;fill:rgb(31.37255%,74.117649%,21.568628%);fill-opacity:1;" d="M 47.953125 10.933594 C 47.21875 10.933594 46.695312 10.386719 46.695312 9.65625 C 46.695312 8.925781 47.21875 8.382812 47.953125 8.382812 C 48.695312 8.382812 49.214844 8.925781 49.214844 9.65625 C 49.214844 10.386719 48.695312 10.933594 47.953125 10.933594 Z M 47.949219 7.132812 C 46.496094 7.132812 45.464844 8.210938 45.464844 9.65625 C 45.464844 11.101562 46.496094 12.179688 47.949219 12.179688 C 49.414062 12.179688 50.449219 11.101562 50.449219 9.65625 C 50.449219 8.210938 49.414062 7.132812 47.949219 7.132812 Z M 47.949219 13.488281 C 45.742188 13.488281 44.171875 11.851562 44.171875 9.65625 C 44.171875 7.460938 45.742188 5.828125 47.949219 5.828125 C 50.171875 5.828125 51.738281 7.460938 51.738281 9.65625 C 51.738281 11.851562 50.171875 13.488281 47.949219 13.488281 Z M 47.945312 4.410156 C 44.921875 4.410156 42.777344 6.652344 42.777344 9.65625 C 42.777344 12.664062 44.921875 14.902344 47.945312 14.902344 C 50.988281 14.902344 53.136719 12.664062 53.136719 9.65625 C 53.136719 6.652344 50.988281 4.410156 47.945312 4.410156 Z M 11.730469 13.792969 L 10.179688 13.417969 C 8.765625 13.089844 8.050781 12.714844 8.050781 11.679688 C 8.050781 10.507812 9.230469 10.039062 10.296875 10.039062 C 11.378906 10.039062 12.171875 10.585938 12.636719 11.441406 C 12.636719 11.441406 12.640625 11.445312 12.644531 11.453125 C 12.652344 11.46875 12.664062 11.488281 12.671875 11.507812 L 12.675781 11.503906 C 12.820312 11.730469 13.070312 11.878906 13.335938 11.878906 C 13.785156 11.878906 14.113281 11.546875 14.113281 11.089844 C 14.113281 10.914062 14.078125 10.730469 13.996094 10.589844 C 13.199219 9.222656 11.890625 8.632812 10.386719 8.632812 C 8.351562 8.632812 6.378906 9.664062 6.378906 11.9375 C 6.378906 14.027344 8.417969 14.636719 9.160156 14.824219 L 10.644531 15.175781 C 11.777344 15.457031 12.703125 15.832031 12.703125 16.933594 C 12.703125 18.203125 11.40625 18.765625 10.15625 18.765625 C 8.882812 18.765625 7.941406 18.105469 7.289062 17.132812 C 7.144531 16.917969 6.921875 16.769531 6.644531 16.769531 C 6.203125 16.769531 5.847656 17.136719 5.863281 17.582031 C 5.871094 17.765625 5.929688 17.921875 6.023438 18.050781 C 7.042969 19.59375 8.515625 20.171875 10.15625 20.171875 C 12.265625 20.171875 14.375 19.1875 14.375 16.792969 C 14.375 15.246094 13.238281 14.144531 11.730469 13.792969 Z M 22.097656 18.757812 C 19.59375 18.757812 18.019531 16.859375 18.019531 14.394531 C 18.019531 11.933594 19.59375 10.03125 22.097656 10.03125 C 24.621094 10.03125 26.195312 11.933594 26.195312 14.394531 C 26.195312 16.859375 24.621094 18.757812 22.097656 18.757812 Z M 22.097656 8.625 C 18.738281 8.625 16.351562 11.089844 16.351562 14.394531 C 16.351562 17.703125 18.738281 20.164062 22.097656 20.164062 C 25.476562 20.164062 27.863281 17.703125 27.863281 14.394531 C 27.863281 11.089844 25.476562 8.625 22.097656 8.625 Z M 38.363281 17.5625 C 38.308594 17.617188 38.25 17.671875 38.1875 17.722656 C 38.105469 17.800781 38.011719 17.882812 37.902344 17.964844 C 37.25 18.441406 36.425781 18.71875 35.464844 18.71875 C 32.960938 18.71875 31.386719 16.820312 31.386719 14.355469 C 31.386719 11.894531 32.960938 9.992188 35.464844 9.992188 C 37.988281 9.992188 39.5625 11.894531 39.5625 14.355469 C 39.5625 15.644531 39.132812 16.773438 38.363281 17.5625 Z M 34.625 23.816406 C 34.8125 23.816406 35.003906 23.804688 35.207031 23.777344 C 35.578125 23.730469 35.914062 23.710938 36.21875 23.710938 C 37.640625 23.71875 38.363281 24.136719 38.800781 24.621094 C 39.234375 25.105469 39.402344 25.765625 39.402344 26.324219 C 39.402344 26.59375 39.363281 26.832031 39.316406 26.976562 C 39.097656 27.644531 38.660156 28.097656 37.988281 28.441406 C 37.320312 28.777344 36.429688 28.949219 35.496094 28.945312 C 35.164062 28.945312 34.824219 28.925781 34.488281 28.882812 C 33.855469 28.808594 33.019531 28.535156 32.414062 28.054688 C 32.105469 27.816406 31.855469 27.53125 31.679688 27.195312 C 31.503906 26.859375 31.394531 26.464844 31.390625 25.964844 L 31.390625 25.910156 C 31.410156 24.988281 31.828125 24.375 32.289062 23.929688 C 32.515625 23.710938 32.75 23.550781 32.917969 23.445312 C 32.945312 23.429688 32.972656 23.414062 32.996094 23.402344 C 33.445312 23.671875 34.003906 23.816406 34.625 23.816406 Z M 35.464844 8.585938 C 32.105469 8.585938 29.71875 11.046875 29.71875 14.355469 C 29.71875 16.59375 30.808594 18.441406 32.550781 19.402344 C 32.527344 19.425781 32.507812 19.453125 32.484375 19.476562 C 32.035156 19.976562 31.804688 20.617188 31.800781 21.265625 C 31.800781 21.550781 31.847656 21.84375 31.949219 22.125 C 31.722656 22.269531 31.453125 22.472656 31.175781 22.734375 C 30.507812 23.363281 29.792969 24.417969 29.769531 25.882812 C 29.769531 25.917969 29.769531 25.945312 29.769531 25.964844 C 29.769531 26.71875 29.945312 27.398438 30.246094 27.96875 C 30.699219 28.824219 31.40625 29.421875 32.132812 29.820312 C 32.867188 30.21875 33.628906 30.429688 34.296875 30.515625 C 34.691406 30.5625 35.09375 30.589844 35.496094 30.589844 C 36.617188 30.585938 37.734375 30.394531 38.703125 29.914062 C 39.671875 29.441406 40.5 28.625 40.859375 27.476562 C 40.964844 27.136719 41.023438 26.75 41.023438 26.324219 C 41.023438 25.457031 40.777344 24.398438 40.007812 23.523438 C 39.238281 22.644531 37.964844 22.058594 36.21875 22.066406 C 35.839844 22.066406 35.4375 22.09375 35.007812 22.148438 C 34.867188 22.164062 34.742188 22.175781 34.625 22.175781 C 34.089844 22.171875 33.820312 22.019531 33.660156 21.867188 C 33.503906 21.710938 33.425781 21.503906 33.421875 21.265625 C 33.421875 21.019531 33.519531 20.761719 33.679688 20.585938 C 33.84375 20.410156 34.050781 20.292969 34.40625 20.289062 C 34.4375 20.289062 34.472656 20.289062 34.507812 20.292969 C 34.738281 20.308594 34.960938 20.316406 35.175781 20.316406 C 36.960938 20.320312 38.304688 19.761719 39.21875 18.988281 C 40.136719 18.21875 40.621094 17.28125 40.851562 16.539062 L 40.847656 16.539062 C 41.097656 15.871094 41.230469 15.136719 41.230469 14.355469 C 41.230469 11.046875 38.84375 8.585938 35.464844 8.585938 Z M 35.464844 8.585938 "/>
</g>
</svg>
